<svg width="346" height="46" viewBox="0 0 346 46" fill="none" xmlns="http://www.w3.org/2000/svg">
<g filter="url(#filter0_d_6_4)">
<path d="M22.285 31.435C23.035 32.725 23.41 33.97 23.41 35.17C23.41 35.44 23.38 35.68 23.32 35.89C23.29 36.13 23.245 36.37 23.185 36.61C22.675 36.55 22.135 36.505 21.565 36.475C21.025 36.445 20.455 36.43 19.855 36.43C19.135 36.43 18.4 36.445 17.65 36.475C16.93 36.535 16.12 36.61 15.22 36.7C14.32 36.79 13.315 36.91 12.205 37.06C11.095 37.21 9.805 37.405 8.335 37.645C7.645 37.405 6.955 36.925 6.265 36.205C5.575 35.515 4.93 34.675 4.33 33.685C4.63 33.025 5.005 32.215 5.455 31.255C5.905 30.265 6.43 29.08 7.03 27.7C7.63 26.29 8.29 24.655 9.01 22.795C9.76 20.905 10.555 18.73 11.395 16.27C11.935 14.65 12.4 13.225 12.79 11.995C13.18 10.765 13.525 9.58 13.825 8.44C14.155 7.27 14.47 6.055 14.77 4.795C15.07 3.535 15.4 2.08 15.76 0.429998C16.96 0.669998 17.995 1.12 18.865 1.78C19.765 2.41 20.62 3.325 21.43 4.525C21.19 4.915 20.875 5.545 20.485 6.415C20.095 7.285 19.63 8.35 19.09 9.61C18.58 10.84 18.01 12.25 17.38 13.84C16.75 15.4 16.09 17.08 15.4 18.88C14.74 20.65 14.095 22.315 13.465 23.875C12.835 25.435 12.265 26.845 11.755 28.105C11.275 29.365 10.885 30.445 10.585 31.345C10.285 32.245 10.135 32.92 10.135 33.37C10.615 33.34 11.05 33.31 11.44 33.28C11.83 33.25 12.235 33.205 12.655 33.145C13.075 33.055 13.525 32.965 14.005 32.875C14.515 32.755 15.115 32.605 15.805 32.425C16.405 32.275 16.96 32.155 17.47 32.065C17.98 31.945 18.475 31.855 18.955 31.795C19.465 31.705 19.975 31.645 20.485 31.615C21.025 31.555 21.625 31.495 22.285 31.435ZM43.2596 3.715C41.9396 5.485 40.7396 7.435 39.6596 9.565C38.5796 11.695 37.6496 13.885 36.8696 16.135C36.1196 18.355 35.5346 20.56 35.1146 22.75C34.7246 24.91 34.5296 26.935 34.5296 28.825C34.5296 31.165 34.8746 32.86 35.5646 33.91C36.2546 34.96 37.4396 35.485 39.1196 35.485C41.0696 35.485 42.7796 34.81 44.2496 33.46C45.7196 32.08 47.0996 30.19 48.3896 27.79C49.2296 26.23 49.9496 24.52 50.5496 22.66C51.1496 20.8 51.6296 18.895 51.9896 16.945C52.3796 14.965 52.6646 12.985 52.8446 11.005C53.0246 8.995 53.1146 7.075 53.1146 5.245C53.1146 4.075 53.0996 3.22 53.0696 2.68C53.0396 2.14 52.9946 1.705 52.9346 1.375C53.0246 1.375 53.2496 1.405 53.6096 1.465C53.9696 1.525 54.3746 1.6 54.8246 1.69C55.3046 1.78 55.7696 1.9 56.2196 2.05C56.6996 2.2 57.1046 2.365 57.4346 2.545C57.2846 4.825 56.9996 7.18 56.5796 9.61C56.1896 12.04 55.6646 14.44 55.0046 16.81C54.3446 19.18 53.5796 21.46 52.7096 23.65C51.8396 25.84 50.8646 27.805 49.7846 29.545C48.1946 32.125 46.4096 34.135 44.4296 35.575C42.4496 37.045 40.1096 37.78 37.4096 37.78C34.6496 37.78 32.5046 36.97 30.9746 35.35C29.4446 33.76 28.6796 31.33 28.6796 28.06C28.6796 26.17 28.8896 24.04 29.3096 21.67C29.7296 19.27 30.2846 16.84 30.9746 14.38C31.6946 11.89 32.5196 9.475 33.4496 7.135C34.3796 4.765 35.3546 2.65 36.3746 0.789998C36.8846 0.819998 37.4846 0.924998 38.1746 1.105C38.8646 1.285 39.5396 1.525 40.1996 1.825C40.8596 2.095 41.4596 2.41 41.9996 2.77C42.5696 3.1 42.9896 3.415 43.2596 3.715ZM59.2015 25.18C59.2015 23.08 59.4415 21.025 59.9215 19.015C60.4315 16.975 61.1365 15.055 62.0365 13.255C62.9365 11.425 64.0015 9.76 65.2315 8.26C66.4915 6.73 67.8565 5.41 69.3265 4.3C70.8265 3.19 72.4165 2.335 74.0965 1.735C75.7765 1.105 77.5015 0.789998 79.2715 0.789998C81.3415 0.789998 82.9465 1.225 84.0865 2.095C85.2565 2.965 85.8415 4.18 85.8415 5.74C85.8415 6.34 85.7515 6.955 85.5715 7.585C85.4215 8.215 85.1815 8.845 84.8515 9.475C84.5515 10.075 84.1915 10.66 83.7715 11.23C83.3515 11.8 82.8865 12.295 82.3765 12.715C81.5965 12.595 80.9215 12.25 80.3515 11.68C79.7815 11.08 79.4215 10.39 79.2715 9.61C80.3215 8.74 81.1465 7.84 81.7465 6.91C82.3765 5.95 82.6915 5.08 82.6915 4.3C82.6915 2.98 81.8665 2.32 80.2165 2.32C79.5265 2.32 78.8065 2.47 78.0565 2.77C77.3365 3.04 76.6015 3.43 75.8515 3.94C75.1015 4.45 74.3665 5.065 73.6465 5.785C72.9565 6.505 72.3115 7.3 71.7115 8.17C67.5415 14.17 65.4565 20.305 65.4565 26.575C65.4565 28.795 65.8015 30.58 66.4915 31.93C67.1815 33.28 68.0965 34.075 69.2365 34.315C70.5265 34.015 72.1615 33.19 74.1415 31.84C76.1215 30.49 78.2815 28.735 80.6215 26.575C80.9215 26.875 81.1015 27.19 81.1615 27.52C80.2915 28.66 79.3915 29.755 78.4615 30.805C77.5315 31.855 76.6015 32.815 75.6715 33.685C74.7715 34.555 73.8715 35.32 72.9715 35.98C72.1015 36.64 71.2915 37.15 70.5415 37.51C66.8215 37.45 64.0015 36.385 62.0815 34.315C60.1615 32.245 59.2015 29.2 59.2015 25.18ZM86.32 37.42C84.88 37 83.875 36.58 83.305 36.16C82.765 35.74 82.495 35.215 82.495 34.585C82.495 34.105 82.63 33.43 82.9 32.56C83.17 31.69 83.56 30.67 84.07 29.5C84.61 28.3 85.24 26.98 85.96 25.54C86.71 24.1 87.55 22.555 88.48 20.905C87.7 20.875 86.995 20.86 86.365 20.86C85.765 20.83 85.27 20.815 84.88 20.815C85.06 20.365 85.57 19.975 86.41 19.645C87.25 19.315 88.36 19.03 89.74 18.79C90.91 16.84 92.155 14.98 93.475 13.21C94.825 11.44 96.175 9.82 97.525 8.35C98.875 6.85 100.225 5.545 101.575 4.435C102.925 3.295 104.215 2.395 105.445 1.735C105.475 1.525 105.49 1.345 105.49 1.195C105.52 1.045 105.535 0.939998 105.535 0.879997C105.955 0.879997 106.51 0.984998 107.2 1.195C107.92 1.405 108.61 1.66 109.27 1.96C109.96 2.26 110.56 2.575 111.07 2.905C111.61 3.205 111.91 3.46 111.97 3.67C110.98 5.41 110.005 8.02 109.045 11.5C108.085 14.95 107.29 19.09 106.66 23.92C106.51 25.12 106.375 26.485 106.255 28.015C106.165 29.545 106.12 31.255 106.12 33.145C106.12 33.805 106.12 34.48 106.12 35.17C106.12 35.86 106.15 36.58 106.21 37.33C106.15 37.36 106.09 37.375 106.03 37.375C105.97 37.375 105.85 37.375 105.67 37.375C105.25 37.375 104.755 37.3 104.185 37.15C103.645 37.03 103.105 36.865 102.565 36.655C102.055 36.475 101.605 36.265 101.215 36.025C100.855 35.785 100.63 35.575 100.54 35.395C100.51 35.005 100.495 34.615 100.495 34.225C100.495 33.865 100.495 33.475 100.495 33.055C100.495 31.195 100.555 29.305 100.675 27.385C100.825 25.465 101.065 23.485 101.395 21.445C100.975 21.415 100.42 21.385 99.73 21.355C99.04 21.295 98.26 21.25 97.39 21.22C96.55 21.19 95.635 21.16 94.645 21.13C93.685 21.07 92.74 21.025 91.81 20.995C91.09 22.345 90.415 23.695 89.785 25.045C89.155 26.365 88.615 27.7 88.165 29.05C87.655 30.49 87.235 31.93 86.905 33.37C86.605 34.81 86.41 36.16 86.32 37.42ZM103.69 10.375C103.81 9.955 103.945 9.385 104.095 8.665C104.275 7.915 104.44 7.135 104.59 6.325C103.84 6.595 103 7.09 102.07 7.81C101.17 8.53 100.225 9.43 99.235 10.51C98.275 11.56 97.285 12.76 96.265 14.11C95.275 15.43 94.315 16.84 93.385 18.34C95.905 18.13 98.77 17.995 101.98 17.935C102.22 16.675 102.475 15.43 102.745 14.2C103.045 12.94 103.36 11.665 103.69 10.375ZM142.199 3.67C142.289 4.18 142.349 4.54 142.379 4.75C142.439 4.93 142.469 5.185 142.469 5.515C142.469 6.505 142.244 7.435 141.794 8.305C141.374 9.145 140.789 9.745 140.039 10.105C139.439 9.295 138.704 8.605 137.834 8.035C136.964 7.435 136.004 6.955 134.954 6.595C133.934 6.205 132.869 5.92 131.759 5.74C130.649 5.56 129.569 5.47 128.519 5.47C127.469 5.47 126.479 5.56 125.549 5.74C124.649 5.89 123.839 6.115 123.119 6.415C122.429 6.685 121.874 7.03 121.454 7.45C121.064 7.87 120.869 8.35 120.869 8.89C120.959 9.55 121.364 10.225 122.084 10.915C122.804 11.575 123.689 12.235 124.739 12.895C125.789 13.525 126.944 14.155 128.204 14.785C129.494 15.415 130.754 16.015 131.984 16.585C133.514 17.305 134.834 17.98 135.944 18.61C137.054 19.21 137.969 19.885 138.689 20.635C139.409 21.355 139.949 22.18 140.309 23.11C140.669 24.04 140.849 25.165 140.849 26.485C140.849 28.015 140.594 29.455 140.084 30.805C139.574 32.125 138.824 33.28 137.834 34.27C136.874 35.26 135.704 36.025 134.324 36.565C132.944 37.135 131.399 37.42 129.689 37.42C128.009 37.42 126.194 37.165 124.244 36.655C122.294 36.145 120.464 35.44 118.754 34.54C117.074 33.67 115.664 32.665 114.524 31.525C113.414 30.355 112.859 29.125 112.859 27.835C112.859 27.235 113.024 26.47 113.354 25.54C113.714 24.61 114.344 23.635 115.244 22.615C115.334 23.515 115.814 24.58 116.684 25.81C117.584 27.04 118.919 28.18 120.689 29.23C122.339 30.19 124.034 30.895 125.774 31.345C127.544 31.765 129.194 31.975 130.724 31.975C132.404 31.975 133.769 31.765 134.819 31.345C135.869 30.925 136.694 30.43 137.294 29.86C137.894 29.26 138.314 28.66 138.554 28.06C138.794 27.46 138.929 26.98 138.959 26.62C138.929 26.02 138.644 25.45 138.104 24.91C137.594 24.34 136.889 23.8 135.989 23.29C135.119 22.75 134.099 22.21 132.929 21.67C131.759 21.13 130.544 20.59 129.284 20.05C127.394 19.21 125.759 18.43 124.379 17.71C123.029 16.96 121.904 16.21 121.004 15.46C120.134 14.68 119.489 13.87 119.069 13.03C118.679 12.19 118.484 11.23 118.484 10.15C118.484 8.47 118.994 6.88 120.014 5.38C121.034 3.88 122.504 2.74 124.424 1.96C125.384 1.54 126.404 1.24 127.484 1.06C128.594 0.879998 129.674 0.789998 130.724 0.789998C132.704 0.789998 134.639 1.06 136.529 1.6C138.419 2.14 140.309 2.83 142.199 3.67ZM185.824 9.745C185.824 11.395 185.404 12.97 184.564 14.47C183.754 15.97 182.644 17.29 181.234 18.43C179.854 19.54 178.219 20.425 176.329 21.085C174.469 21.745 172.489 22.075 170.389 22.075C169.639 22.075 169.039 21.985 168.589 21.805C168.169 21.595 167.689 21.205 167.149 20.635C165.649 23.905 164.419 26.92 163.459 29.68C162.529 32.41 161.794 35.065 161.254 37.645C160.114 37.375 159.184 36.895 158.464 36.205C157.744 35.545 157.084 34.705 156.484 33.685C156.784 33.115 157.144 32.365 157.564 31.435C157.984 30.505 158.494 29.365 159.094 28.015C159.694 26.635 160.384 25 161.164 23.11C161.974 21.19 162.919 18.955 163.999 16.405C164.479 15.235 164.899 14.215 165.259 13.345C165.619 12.475 165.934 11.665 166.204 10.915C166.474 10.135 166.714 9.37 166.924 8.62C167.164 7.87 167.404 7.045 167.644 6.145C166.234 6.595 164.929 7.12 163.729 7.72C162.559 8.32 161.584 8.95 160.804 9.61C160.534 9.43 160.249 9.16 159.949 8.8C159.679 8.44 159.424 8.05 159.184 7.63C158.944 7.18 158.734 6.73 158.554 6.28C158.374 5.83 158.269 5.425 158.239 5.065C159.109 4.465 160.189 3.91 161.479 3.4C162.769 2.89 164.149 2.455 165.619 2.095C167.089 1.705 168.604 1.405 170.164 1.195C171.754 0.984998 173.269 0.879997 174.709 0.879997C176.419 0.879997 177.964 1.105 179.344 1.555C180.724 1.975 181.894 2.575 182.854 3.355C183.814 4.135 184.549 5.065 185.059 6.145C185.569 7.225 185.824 8.425 185.824 9.745ZM177.814 4.345C176.674 4.345 175.504 4.435 174.304 4.615L174.844 5.425C174.544 5.815 174.169 6.4 173.719 7.18C173.269 7.96 172.774 8.905 172.234 10.015C171.694 11.095 171.094 12.31 170.434 13.66C169.804 15.01 169.129 16.435 168.409 17.935C170.749 17.935 172.879 17.725 174.799 17.305C176.719 16.855 178.354 16.255 179.704 15.505C181.084 14.725 182.149 13.825 182.899 12.805C183.679 11.785 184.069 10.69 184.069 9.52C184.069 7.96 183.544 6.715 182.494 5.785C181.444 4.825 179.884 4.345 177.814 4.345ZM186.076 37.42C184.636 37 183.631 36.58 183.061 36.16C182.521 35.74 182.251 35.215 182.251 34.585C182.251 34.105 182.386 33.43 182.656 32.56C182.926 31.69 183.316 30.67 183.826 29.5C184.366 28.3 184.996 26.98 185.716 25.54C186.466 24.1 187.306 22.555 188.236 20.905C187.456 20.875 186.751 20.86 186.121 20.86C185.521 20.83 185.026 20.815 184.636 20.815C184.816 20.365 185.326 19.975 186.166 19.645C187.006 19.315 188.116 19.03 189.496 18.79C190.666 16.84 191.911 14.98 193.231 13.21C194.581 11.44 195.931 9.82 197.281 8.35C198.631 6.85 199.981 5.545 201.331 4.435C202.681 3.295 203.971 2.395 205.201 1.735C205.231 1.525 205.246 1.345 205.246 1.195C205.276 1.045 205.291 0.939998 205.291 0.879997C205.711 0.879997 206.266 0.984998 206.956 1.195C207.676 1.405 208.366 1.66 209.026 1.96C209.716 2.26 210.316 2.575 210.826 2.905C211.366 3.205 211.666 3.46 211.726 3.67C210.736 5.41 209.761 8.02 208.801 11.5C207.841 14.95 207.046 19.09 206.416 23.92C206.266 25.12 206.131 26.485 206.011 28.015C205.921 29.545 205.876 31.255 205.876 33.145C205.876 33.805 205.876 34.48 205.876 35.17C205.876 35.86 205.906 36.58 205.966 37.33C205.906 37.36 205.846 37.375 205.786 37.375C205.726 37.375 205.606 37.375 205.426 37.375C205.006 37.375 204.511 37.3 203.941 37.15C203.401 37.03 202.861 36.865 202.321 36.655C201.811 36.475 201.361 36.265 200.971 36.025C200.611 35.785 200.386 35.575 200.296 35.395C200.266 35.005 200.251 34.615 200.251 34.225C200.251 33.865 200.251 33.475 200.251 33.055C200.251 31.195 200.311 29.305 200.431 27.385C200.581 25.465 200.821 23.485 201.151 21.445C200.731 21.415 200.176 21.385 199.486 21.355C198.796 21.295 198.016 21.25 197.146 21.22C196.306 21.19 195.391 21.16 194.401 21.13C193.441 21.07 192.496 21.025 191.566 20.995C190.846 22.345 190.171 23.695 189.541 25.045C188.911 26.365 188.371 27.7 187.921 29.05C187.411 30.49 186.991 31.93 186.661 33.37C186.361 34.81 186.166 36.16 186.076 37.42ZM203.446 10.375C203.566 9.955 203.701 9.385 203.851 8.665C204.031 7.915 204.196 7.135 204.346 6.325C203.596 6.595 202.756 7.09 201.826 7.81C200.926 8.53 199.981 9.43 198.991 10.51C198.031 11.56 197.041 12.76 196.021 14.11C195.031 15.43 194.071 16.84 193.141 18.34C195.661 18.13 198.526 17.995 201.736 17.935C201.976 16.675 202.231 15.43 202.501 14.2C202.801 12.94 203.116 11.665 203.446 10.375ZM229.544 3.715C228.224 5.485 227.024 7.435 225.944 9.565C224.864 11.695 223.934 13.885 223.154 16.135C222.404 18.355 221.819 20.56 221.399 22.75C221.009 24.91 220.814 26.935 220.814 28.825C220.814 31.165 221.159 32.86 221.849 33.91C222.539 34.96 223.724 35.485 225.404 35.485C227.354 35.485 229.064 34.81 230.534 33.46C232.004 32.08 233.384 30.19 234.674 27.79C235.514 26.23 236.234 24.52 236.834 22.66C237.434 20.8 237.914 18.895 238.274 16.945C238.664 14.965 238.949 12.985 239.129 11.005C239.309 8.995 239.399 7.075 239.399 5.245C239.399 4.075 239.384 3.22 239.354 2.68C239.324 2.14 239.279 1.705 239.219 1.375C239.309 1.375 239.534 1.405 239.894 1.465C240.254 1.525 240.659 1.6 241.109 1.69C241.589 1.78 242.054 1.9 242.504 2.05C242.984 2.2 243.389 2.365 243.719 2.545C243.569 4.825 243.284 7.18 242.864 9.61C242.474 12.04 241.949 14.44 241.289 16.81C240.629 19.18 239.864 21.46 238.994 23.65C238.124 25.84 237.149 27.805 236.069 29.545C234.479 32.125 232.694 34.135 230.714 35.575C228.734 37.045 226.394 37.78 223.694 37.78C220.934 37.78 218.789 36.97 217.259 35.35C215.729 33.76 214.964 31.33 214.964 28.06C214.964 26.17 215.174 24.04 215.594 21.67C216.014 19.27 216.569 16.84 217.259 14.38C217.979 11.89 218.804 9.475 219.734 7.135C220.664 4.765 221.639 2.65 222.659 0.789998C223.169 0.819998 223.769 0.924998 224.459 1.105C225.149 1.285 225.824 1.525 226.484 1.825C227.144 2.095 227.744 2.41 228.284 2.77C228.854 3.1 229.274 3.415 229.544 3.715ZM260.381 31.435C261.131 32.725 261.506 33.97 261.506 35.17C261.506 35.44 261.476 35.68 261.416 35.89C261.386 36.13 261.341 36.37 261.281 36.61C260.771 36.55 260.231 36.505 259.661 36.475C259.121 36.445 258.551 36.43 257.951 36.43C257.231 36.43 256.496 36.445 255.746 36.475C255.026 36.535 254.216 36.61 253.316 36.7C252.416 36.79 251.411 36.91 250.301 37.06C249.191 37.21 247.901 37.405 246.431 37.645C245.741 37.405 245.051 36.925 244.361 36.205C243.671 35.515 243.026 34.675 242.426 33.685C242.726 33.025 243.101 32.215 243.551 31.255C244.001 30.265 244.526 29.08 245.126 27.7C245.726 26.29 246.386 24.655 247.106 22.795C247.856 20.905 248.651 18.73 249.491 16.27C250.031 14.65 250.496 13.225 250.886 11.995C251.276 10.765 251.621 9.58 251.921 8.44C252.251 7.27 252.566 6.055 252.866 4.795C253.166 3.535 253.496 2.08 253.856 0.429998C255.056 0.669998 256.091 1.12 256.961 1.78C257.861 2.41 258.716 3.325 259.526 4.525C259.286 4.915 258.971 5.545 258.581 6.415C258.191 7.285 257.726 8.35 257.186 9.61C256.676 10.84 256.106 12.25 255.476 13.84C254.846 15.4 254.186 17.08 253.496 18.88C252.836 20.65 252.191 22.315 251.561 23.875C250.931 25.435 250.361 26.845 249.851 28.105C249.371 29.365 248.981 30.445 248.681 31.345C248.381 32.245 248.231 32.92 248.231 33.37C248.711 33.34 249.146 33.31 249.536 33.28C249.926 33.25 250.331 33.205 250.751 33.145C251.171 33.055 251.621 32.965 252.101 32.875C252.611 32.755 253.211 32.605 253.901 32.425C254.501 32.275 255.056 32.155 255.566 32.065C256.076 31.945 256.571 31.855 257.051 31.795C257.561 31.705 258.071 31.645 258.581 31.615C259.121 31.555 259.721 31.495 260.381 31.435ZM266.7 31.435C266.7 30.355 266.865 28.96 267.195 27.25C267.555 25.51 268.005 23.65 268.545 21.67C269.115 19.66 269.76 17.62 270.48 15.55C271.2 13.45 271.935 11.485 272.685 9.655C273.435 7.825 274.17 6.22 274.89 4.84C275.61 3.46 276.255 2.47 276.825 1.87C277.125 1.9 277.515 2.02 277.995 2.23C278.505 2.41 279.015 2.635 279.525 2.905C280.035 3.175 280.5 3.475 280.92 3.805C281.34 4.105 281.61 4.39 281.73 4.66C280.86 5.44 279.99 6.625 279.12 8.215C278.28 9.775 277.455 11.56 276.645 13.57C275.865 15.58 275.13 17.71 274.44 19.96C273.75 22.18 273.15 24.34 272.64 26.44C272.13 28.54 271.725 30.49 271.425 32.29C271.155 34.09 271.02 35.545 271.02 36.655C271.02 37.165 271.065 37.48 271.155 37.6C270.495 37.57 270.015 37.45 269.715 37.24C269.415 37.06 269.175 36.85 268.995 36.61C268.845 36.4 268.695 36.175 268.545 35.935C268.425 35.725 268.23 35.56 267.96 35.44C267.75 35.35 267.57 35.14 267.42 34.81C267.27 34.48 267.135 34.12 267.015 33.73C266.925 33.31 266.85 32.89 266.79 32.47C266.73 32.05 266.7 31.705 266.7 31.435ZM283.549 37.42C281.839 36.91 280.684 36.415 280.084 35.935C279.484 35.485 279.184 34.855 279.184 34.045C279.184 33.145 279.394 31.885 279.814 30.265C280.234 28.615 280.774 26.785 281.434 24.775C282.124 22.765 282.904 20.665 283.774 18.475C284.644 16.285 285.529 14.185 286.429 12.175C287.329 10.165 288.199 8.335 289.039 6.685C289.909 5.005 290.674 3.7 291.334 2.77L291.019 0.879997C291.439 0.879997 292.024 0.984998 292.774 1.195C293.524 1.405 294.274 1.66 295.024 1.96C295.804 2.26 296.479 2.575 297.049 2.905C297.649 3.205 297.979 3.46 298.039 3.67C297.889 4.39 297.769 5.485 297.679 6.955C297.589 8.395 297.544 9.94 297.544 11.59C297.544 14.86 297.664 18.07 297.904 21.22C298.174 24.34 298.774 27.52 299.704 30.76C300.184 28.36 300.694 25.975 301.234 23.605C301.804 21.205 302.389 18.925 302.989 16.765C303.589 14.575 304.189 12.55 304.789 10.69C305.389 8.83 305.959 7.21 306.499 5.83C307.069 4.42 307.594 3.325 308.074 2.545C308.554 1.735 308.989 1.3 309.379 1.24C309.709 1.3 310.069 1.435 310.459 1.645C310.849 1.825 311.224 2.05 311.584 2.32C311.944 2.59 312.274 2.89 312.574 3.22C312.874 3.55 313.114 3.88 313.294 4.21C312.334 4.6 311.374 5.515 310.414 6.955C309.484 8.395 308.584 10.15 307.714 12.22C306.874 14.26 306.079 16.48 305.329 18.88C304.609 21.28 303.964 23.65 303.394 25.99C302.854 28.3 302.419 30.445 302.089 32.425C301.789 34.405 301.624 35.995 301.594 37.195C301.594 37.255 301.609 37.3 301.639 37.33C301.549 37.36 301.444 37.375 301.324 37.375C301.234 37.375 301.144 37.375 301.054 37.375C299.674 37.375 298.444 37.195 297.364 36.835C296.314 36.505 295.624 36.025 295.294 35.395C294.664 32.875 294.139 30.445 293.719 28.105C293.299 25.765 292.939 23.425 292.639 21.085C292.369 18.745 292.144 16.39 291.964 14.02C291.814 11.62 291.694 9.115 291.604 6.505C291.034 7.405 290.434 8.59 289.804 10.06C289.174 11.5 288.559 13.09 287.959 14.83C287.359 16.57 286.774 18.4 286.204 20.32C285.664 22.24 285.184 24.115 284.764 25.945C284.344 27.775 284.014 29.515 283.774 31.165C283.534 32.785 283.414 34.195 283.414 35.395C283.414 36.025 283.414 36.475 283.414 36.745C283.444 37.015 283.489 37.24 283.549 37.42ZM331.007 1.24C331.577 1.48 332.162 1.795 332.762 2.185C333.362 2.545 333.917 2.92 334.427 3.31C334.937 3.7 335.357 4.09 335.687 4.48C336.047 4.84 336.242 5.14 336.272 5.38C335.762 5.26 335.252 5.185 334.742 5.155C334.232 5.095 333.767 5.065 333.347 5.065C331.997 5.065 330.647 5.395 329.297 6.055C327.977 6.715 326.717 7.615 325.517 8.755C324.317 9.895 323.207 11.23 322.187 12.76C321.167 14.29 320.282 15.925 319.532 17.665C318.812 19.405 318.242 21.205 317.822 23.065C317.402 24.925 317.192 26.755 317.192 28.555C317.192 30.895 317.582 32.635 318.362 33.775C319.142 34.915 320.282 35.485 321.782 35.485C322.502 35.485 323.282 35.335 324.122 35.035C324.962 34.765 325.817 34.375 326.687 33.865C327.557 33.355 328.412 32.74 329.252 32.02C330.092 31.3 330.872 30.505 331.592 29.635C332.642 28.375 333.587 26.95 334.427 25.36C335.267 23.74 335.972 22.03 336.542 20.23C337.142 18.43 337.592 16.585 337.892 14.695C338.222 12.775 338.387 10.9 338.387 9.07C338.387 8.35 338.372 7.75 338.342 7.27C338.312 6.76 338.267 6.34 338.207 6.01C338.177 5.65 338.147 5.365 338.117 5.155C338.087 4.945 338.057 4.765 338.027 4.615C338.387 4.795 338.777 5.02 339.197 5.29C339.647 5.53 340.052 5.905 340.412 6.415C340.802 6.895 341.117 7.54 341.357 8.35C341.627 9.16 341.762 10.21 341.762 11.5C341.762 13.6 341.507 15.67 340.997 17.71C340.517 19.72 339.827 21.64 338.927 23.47C338.057 25.3 337.022 27.01 335.822 28.6C334.622 30.19 333.332 31.585 331.952 32.785C330.152 34.375 328.232 35.605 326.192 36.475C324.152 37.345 322.187 37.78 320.297 37.78C317.537 37.78 315.422 36.895 313.952 35.125C312.512 33.385 311.792 30.805 311.792 27.385C311.792 25.555 311.987 23.62 312.377 21.58C312.797 19.54 313.367 17.53 314.087 15.55C314.837 13.57 315.722 11.695 316.742 9.925C317.762 8.125 318.872 6.55 320.072 5.2C321.302 3.82 322.607 2.725 323.987 1.915C325.397 1.105 326.837 0.7 328.307 0.7C328.787 0.7 329.237 0.744999 329.657 0.834998C330.077 0.894999 330.527 1.03 331.007 1.24Z" fill="black"/>
</g>
<defs>
<filter id="filter0_d_6_4" x="0.330017" y="0.429993" width="345.432" height="45.35" filterUnits="userSpaceOnUse" color-interpolation-filters="sRGB">
<feFlood flood-opacity="0" result="BackgroundImageFix"/>
<feColorMatrix in="SourceAlpha" type="matrix" values="0 0 0 0 0 0 0 0 0 0 0 0 0 0 0 0 0 0 127 0" result="hardAlpha"/>
<feOffset dy="4"/>
<feGaussianBlur stdDeviation="2"/>
<feComposite in2="hardAlpha" operator="out"/>
<feColorMatrix type="matrix" values="0 0 0 0 0 0 0 0 0 0 0 0 0 0 0 0 0 0 0.25 0"/>
<feBlend mode="normal" in2="BackgroundImageFix" result="effect1_dropShadow_6_4"/>
<feBlend mode="normal" in="SourceGraphic" in2="effect1_dropShadow_6_4" result="shape"/>
</filter>
</defs>
</svg>
